<?xml version="1.0" encoding="utf-8"?>
<!-- Generator: Adobe Illustrator 19.2.1, SVG Export Plug-In . SVG Version: 6.00 Build 0)  -->
<svg version="1.1" id="layer" xmlns="http://www.w3.org/2000/svg" xmlns:xlink="http://www.w3.org/1999/xlink" x="0px" y="0px"
	 viewBox="0 0 652 652" style="enable-background:new 0 0 652 652;" xml:space="preserve">
<style type="text/css">
	.st0{fill:#004D72;}
	.st1{fill:#414042;}
	.st2{enable-background:new    ;}
</style>
<g>
	<path class="st0" d="M30.4,283.9c0.2,2,0.3,4,0.7,5.9c1,5.1,3.6,9.3,7.2,13c3.8,3.8,8.2,6.6,13,8.9c5.5,2.6,11.1,4.9,16.6,7.4
		c2.9,1.3,6,2.5,8.6,4.3c0.8,0.6,1.6,1.3,2.3,2c1.4,1.5,1.6,3.2,0.8,5c-0.4,0.9-0.9,1.8-1.3,2.7c-1,2.3-1.1,4.7,0.2,6.9
		c0.9,1.6,2,3.1,3.1,4.5c1.4,1.8,2.9,3.6,4.3,5.4c2.8,3.9,3.6,8.3,3.1,13c-0.4,3.6-1.6,6.9-3.1,10.2c-0.2,0.5-0.5,0.7-1,0.8
		c-20.9,2.8-38.1-4.1-51.5-20.3c-6.4-7.8-10.2-16.9-11.9-26.8c-0.9-5.1-1.1-10.3-0.7-15.4c0.8-9.7,3.8-18.7,9-26.9
		C30.1,284.4,30.3,284.2,30.4,283.9z"/>
	<path class="st1" d="M240.3,355.9c0-23.7,0-47.4,0-71.2c0.2,0,0.4,0,0.6,0c11.3,0,22.5,0,33.8,0.1c5.5,0.1,10.5,1.7,14.7,5.5
		c3.8,3.4,5.6,7.7,5.6,12.9c0,3.6-0.5,7.1-2.4,10.2c-1.1,1.9-2.6,3.4-4.3,4.7c-0.1,0.1-0.3,0.2-0.5,0.4c0.6,0.3,1.1,0.6,1.6,0.9
		c3.2,1.8,5.9,4.2,7.5,7.5c1.1,2.1,1.6,4.5,1.7,6.9c0.1,2.8,0.1,5.7-0.8,8.4c-1.8,5.6-5.6,9.2-11,11.4c-4.4,1.8-8.9,2.3-13.6,2.3
		c-10.8,0-21.6,0-32.3,0C240.8,355.9,240.6,355.9,240.3,355.9z M266.2,340.2C266.2,340.2,266.2,340.2,266.2,340.2c2.8,0,5.6,0,8.4,0
		c1.4,0,2.8-0.3,4.1-0.9c2.3-1,3.4-2.9,3.4-5.3c0-2.5-1.1-4.3-3.3-5.3c-0.8-0.4-1.6-0.7-2.4-0.8c-2.2-0.2-4.5-0.4-6.7-0.4
		c-4-0.1-8,0-12,0c-0.5,0-1-0.1-1,0.7c0,3.8,0,7.6,0,11.3c0,0.6,0.2,0.8,0.8,0.8C260.4,340.2,263.3,340.2,266.2,340.2z M264.5,300.3
		C264.5,300.3,264.5,300.3,264.5,300.3c-2.4-0.1-4.8-0.1-7.1-0.1c-0.5,0-0.8,0.1-0.7,0.7c0,3.6,0,7.2,0,10.7c0,0.7,0.2,0.9,0.9,0.9
		c4.6-0.1,9.1,0,13.7-0.2c1.3,0,2.6-0.4,3.8-0.9c2.3-0.9,3.5-2.9,3.4-5.3c-0.1-2.5-1.3-4.3-3.6-5.1c-1.1-0.4-2.4-0.7-3.6-0.7
		C269,300.2,266.7,300.3,264.5,300.3z"/>
	<path class="st0" d="M91.7,372.3c0.7-1.2,1.2-2.3,2-3.3c3.3-4.6,6.6-9.3,10.1-13.8c4-5.1,8.1-10.1,12.1-15.2
		c1.3-1.6,2.4-3.4,3.1-5.4c1.1-3.2,0.3-6-2.3-8.1c-1.7-1.3-3.6-2.2-5.5-3c-4.3-1.7-8.8-2.7-13.3-3.8c-6-1.5-12-2.9-18-4.6
		c-3.5-1-6.8-2.4-10-4.3c-1.7-1-3.3-2.3-4.6-3.8c-4.1-4.7-4.2-10.3-0.4-15.2c2.3-2.9,5.1-5.2,8.2-7.2c5.6-3.7,11.7-6.7,17.8-9.4
		c5-2.3,10.1-4.4,15.1-6.7c0.9-0.4,1.6-0.3,2.4,0.3c7.2,5.3,13,11.9,17.1,19.9c3.5,6.6,5.6,13.6,6.4,20.9c1.6,14.9-1.7,28.7-10.2,41
		c-7.1,10.2-16.5,17.4-28.4,21.4c-0.4,0.1-0.8,0.2-1.2,0.4C92.1,372.4,92,372.4,91.7,372.3z M84.6,305.7c0.9-0.2,1.7-0.2,2.6-0.5
		c0.9-0.3,1.2-1,0.6-1.7c-0.5-0.8-1.2-1.7-2-2.3c-2.1-1.7-4.5-2.6-7.1-2.8c-1.7-0.2-3.4,0.1-5,1c-0.8,0.4-0.9,0.7-0.5,1.5
		c0.4,1,1.2,1.6,2.1,2.1C78.1,304.8,81.3,305.4,84.6,305.7z M96,308.5c0.5,0,0.8,0,1-0.1c1.1-0.3,1.3-1,0.5-1.7
		c-1.7-1.5-3.7-2.3-5.9-2.4c-0.7,0-1,0.3-0.6,1C92.2,307.2,94,308.2,96,308.5z M105.2,312.6c-0.6-1.6-3.8-2.5-4.9-1.4
		C100.9,312.2,103.7,313,105.2,312.6z"/>
	<path class="st1" d="M172.2,284.7c0.2,0,0.3,0,0.5,0c9.7,0,19.4-0.1,29,0.2c9.5,0.3,17.7,3.8,24.3,10.8c5.4,5.7,8.3,12.5,9.1,20.2
		c0.8,7.6-0.3,15-4,21.9c-5,9.2-12.7,14.8-22.9,17.2c-3.7,0.9-7.5,1-11.2,1c-8,0-16.1,0-24.1,0c-0.2,0-0.4,0-0.8,0
		C172.2,332.2,172.2,308.4,172.2,284.7z M189,300.7c0,0.3,0,0.4,0,0.6c0,12.5,0,25.1,0,37.6c0,0.7,0.2,0.9,0.9,0.9
		c3.4,0,6.9,0.1,10.3-0.1c5.6-0.2,10.4-2.3,13.9-6.8c2.3-3,3.5-6.5,3.8-10.3c0.4-4.4-0.2-8.6-2.2-12.5c-3-5.7-7.9-8.8-14.2-9.3
		c-3.8-0.3-7.7-0.1-11.6-0.2C189.6,300.7,189.3,300.7,189,300.7z"/>
	<path class="st1" d="M165.7,355.9c-5.6,0-11.1,0-16.7,0c0-23.8,0-47.6,0-71.3c0,0,0.1-0.1,0.1-0.1c2.9,0,5.9-0.1,8.8,0.1
		c4.3,0.2,7.7,3.9,7.7,8.3c0,13.7,0.1,27.4,0.1,41.2c0,7,0,14,0,21C165.7,355.3,165.7,355.6,165.7,355.9z"/>
</g>
<g class="st2">
	<path class="st1" d="M329.1,308.3v-23.4h4.7v23.4H329.1z"/>
	<path class="st1" d="M353.7,308.3h-4.5v-8.6c0-1.8-0.1-3-0.3-3.6c-0.2-0.5-0.5-1-0.9-1.3s-0.9-0.4-1.6-0.4c-0.8,0-1.5,0.2-2.1,0.6
		c-0.6,0.4-1,1-1.3,1.7c-0.2,0.7-0.3,2-0.3,3.9v7.7h-4.5v-16.9h4.2v2.5c1.5-1.9,3.3-2.9,5.6-2.9c1,0,1.9,0.2,2.7,0.5
		s1.4,0.8,1.9,1.4s0.7,1.2,0.9,1.9c0.2,0.7,0.2,1.7,0.2,3V308.3z"/>
	<path class="st1" d="M366,291.3v3.6H363v6.8c0,1.4,0,2.2,0.1,2.4s0.2,0.4,0.4,0.6c0.2,0.1,0.5,0.2,0.8,0.2c0.4,0,1-0.1,1.8-0.4
		l0.4,3.5c-1,0.4-2.2,0.7-3.5,0.7c-0.8,0-1.5-0.1-2.2-0.4c-0.6-0.3-1.1-0.6-1.4-1.1c-0.3-0.4-0.5-1-0.6-1.7
		c-0.1-0.5-0.1-1.6-0.1-3.2v-7.4h-2.1v-3.6h2.1V288l4.5-2.6v6H366z"/>
	<path class="st1" d="M379,302.9l4.5,0.7c-0.6,1.6-1.5,2.9-2.7,3.7c-1.2,0.9-2.8,1.3-4.7,1.3c-2.9,0-5.1-1-6.5-2.9
		c-1.1-1.5-1.7-3.5-1.7-5.8c0-2.8,0.7-5,2.2-6.6c1.5-1.6,3.3-2.4,5.6-2.4c2.5,0,4.5,0.8,6,2.5s2.2,4.2,2.1,7.7h-11.2
		c0,1.3,0.4,2.4,1.1,3.1s1.6,1.1,2.6,1.1c0.7,0,1.3-0.2,1.8-0.6C378.4,304.3,378.7,303.7,379,302.9z M379.2,298.3c0-1.3-0.4-2.3-1-3
		c-0.6-0.7-1.4-1-2.3-1c-1,0-1.8,0.4-2.4,1.1s-0.9,1.7-0.9,2.9H379.2z"/>
	<path class="st1" d="M391.6,308.3h-4.5v-16.9h4.2v2.4c0.7-1.1,1.4-1.9,1.9-2.2c0.6-0.4,1.2-0.5,1.9-0.5c1,0,2,0.3,3,0.8l-1.4,3.9
		c-0.8-0.5-1.5-0.7-2.1-0.7c-0.6,0-1.2,0.2-1.6,0.5c-0.4,0.3-0.8,1-1,1.9c-0.2,0.9-0.4,2.8-0.4,5.7V308.3z"/>
	<path class="st1" d="M399.5,302v-4.5h8.8v4.5H399.5z"/>
	<path class="st1" d="M432,308.3h-5.1l-2-5.3h-9.4l-1.9,5.3h-5l9.1-23.4h5L432,308.3z M423.3,299l-3.2-8.7L417,299H423.3z"/>
	<path class="st1" d="M434.2,291.3h4.1v2.3c1.5-1.8,3.2-2.7,5.3-2.7c1.1,0,2,0.2,2.8,0.7c0.8,0.4,1.5,1.1,2,2c0.7-0.9,1.5-1.6,2.4-2
		c0.9-0.4,1.8-0.7,2.8-0.7c1.2,0,2.3,0.3,3.2,0.8c0.9,0.5,1.5,1.2,1.9,2.2c0.3,0.7,0.5,1.9,0.5,3.5v10.8h-4.5v-9.7
		c0-1.7-0.2-2.8-0.5-3.3c-0.4-0.6-1.1-1-1.9-1c-0.6,0-1.2,0.2-1.8,0.6c-0.6,0.4-0.9,0.9-1.2,1.7c-0.2,0.7-0.4,1.9-0.4,3.5v8.1h-4.5
		V299c0-1.6-0.1-2.7-0.2-3.2c-0.2-0.5-0.4-0.8-0.7-1.1c-0.3-0.2-0.8-0.4-1.4-0.4c-0.7,0-1.3,0.2-1.9,0.6c-0.6,0.4-0.9,0.9-1.2,1.6
		c-0.2,0.7-0.4,1.9-0.4,3.5v8.2h-4.5V291.3z"/>
	<path class="st1" d="M473.4,302.9l4.5,0.7c-0.6,1.6-1.5,2.9-2.7,3.7c-1.2,0.9-2.8,1.3-4.7,1.3c-2.9,0-5.1-1-6.5-2.9
		c-1.1-1.5-1.7-3.5-1.7-5.8c0-2.8,0.7-5,2.2-6.6c1.5-1.6,3.3-2.4,5.6-2.4c2.5,0,4.5,0.8,6,2.5c1.5,1.7,2.2,4.2,2.1,7.7h-11.2
		c0,1.3,0.4,2.4,1.1,3.1s1.6,1.1,2.6,1.1c0.7,0,1.3-0.2,1.8-0.6C472.8,304.3,473.1,303.7,473.4,302.9z M473.6,298.3
		c0-1.3-0.4-2.3-1-3c-0.6-0.7-1.4-1-2.3-1c-1,0-1.8,0.4-2.4,1.1s-0.9,1.7-0.9,2.9H473.6z"/>
	<path class="st1" d="M486,308.3h-4.5v-16.9h4.2v2.4c0.7-1.1,1.4-1.9,1.9-2.2s1.2-0.5,1.9-0.5c1,0,2,0.3,3,0.8l-1.4,3.9
		c-0.8-0.5-1.5-0.7-2.1-0.7c-0.6,0-1.2,0.2-1.6,0.5c-0.4,0.3-0.8,1-1,1.9c-0.2,0.9-0.4,2.8-0.4,5.7V308.3z"/>
	<path class="st1" d="M494.5,289v-4.1h4.5v4.1H494.5z M494.5,308.3v-16.9h4.5v16.9H494.5z"/>
	<path class="st1" d="M518.3,296.3l-4.4,0.8c-0.2-0.9-0.5-1.5-1-2c-0.5-0.4-1.2-0.7-2.1-0.7c-1.1,0-2,0.4-2.7,1.2
		c-0.7,0.8-1,2.1-1,3.9c0,2,0.3,3.4,1,4.3c0.7,0.8,1.6,1.2,2.7,1.2c0.9,0,1.5-0.2,2.1-0.7s0.9-1.3,1.1-2.5l4.4,0.7
		c-0.5,2-1.3,3.5-2.6,4.6s-3,1.5-5.2,1.5c-2.5,0-4.5-0.8-5.9-2.3c-1.5-1.6-2.2-3.7-2.2-6.5c0-2.8,0.7-5,2.2-6.5
		c1.5-1.6,3.5-2.3,6-2.3c2.1,0,3.7,0.4,4.9,1.3C516.9,293.2,517.8,294.5,518.3,296.3z"/>
	<path class="st1" d="M525.1,296.5l-4.1-0.7c0.5-1.6,1.2-2.9,2.4-3.6c1.1-0.8,2.8-1.2,5-1.2c2,0,3.5,0.2,4.5,0.7
		c1,0.5,1.7,1.1,2.1,1.8c0.4,0.7,0.6,2.1,0.6,4l0,5.2c0,1.5,0.1,2.6,0.2,3.3c0.1,0.7,0.4,1.5,0.8,2.3H532c-0.1-0.3-0.3-0.7-0.4-1.3
		c-0.1-0.3-0.1-0.4-0.2-0.5c-0.8,0.7-1.6,1.3-2.5,1.7c-0.9,0.4-1.8,0.6-2.8,0.6c-1.7,0-3.1-0.5-4.1-1.4c-1-0.9-1.5-2.1-1.5-3.6
		c0-1,0.2-1.8,0.7-2.6c0.5-0.8,1.1-1.3,1.9-1.7s2-0.7,3.6-1c2.1-0.4,3.6-0.8,4.4-1.1v-0.4c0-0.9-0.2-1.5-0.6-1.8
		c-0.4-0.4-1.2-0.6-2.4-0.6c-0.8,0-1.4,0.2-1.9,0.5C525.7,295.2,525.4,295.7,525.1,296.5z M531.1,300.1c-0.6,0.2-1.5,0.4-2.7,0.7
		s-2.1,0.5-2.4,0.8c-0.6,0.4-0.9,0.9-0.9,1.6c0,0.6,0.2,1.2,0.7,1.6c0.5,0.5,1.1,0.7,1.8,0.7c0.8,0,1.6-0.3,2.3-0.8
		c0.5-0.4,0.9-0.9,1.1-1.5c0.1-0.4,0.2-1.1,0.2-2.2V300.1z"/>
	<path class="st1" d="M555.3,308.3h-4.5v-8.6c0-1.8-0.1-3-0.3-3.6s-0.5-1-0.9-1.3s-0.9-0.4-1.6-0.4c-0.8,0-1.5,0.2-2.1,0.6
		c-0.6,0.4-1,1-1.3,1.7c-0.2,0.7-0.3,2-0.3,3.9v7.7h-4.5v-16.9h4.2v2.5c1.5-1.9,3.3-2.9,5.6-2.9c1,0,1.9,0.2,2.7,0.5
		s1.4,0.8,1.9,1.4s0.7,1.2,0.9,1.9c0.2,0.7,0.2,1.7,0.2,3V308.3z"/>
</g>
<g class="st2">
	<path class="st1" d="M329.2,324.1h8.6c1.9,0,3.4,0.1,4.5,0.4c1.4,0.4,2.5,1.1,3.5,2.2s1.7,2.3,2.2,3.8s0.8,3.3,0.8,5.5
		c0,1.9-0.2,3.6-0.7,5c-0.6,1.7-1.4,3.1-2.5,4.1c-0.8,0.8-1.9,1.4-3.3,1.9c-1,0.3-2.4,0.5-4.2,0.5h-8.9V324.1z M334,328v15.5h3.5
		c1.3,0,2.3-0.1,2.9-0.2c0.8-0.2,1.4-0.5,1.9-1c0.5-0.5,0.9-1.2,1.2-2.3c0.3-1,0.5-2.5,0.5-4.3s-0.2-3.2-0.5-4.2
		c-0.3-1-0.8-1.7-1.3-2.3c-0.6-0.5-1.3-0.9-2.2-1.1c-0.7-0.1-2-0.2-3.9-0.2H334z"/>
	<path class="st1" d="M362.6,342.1l4.5,0.7c-0.6,1.6-1.5,2.9-2.7,3.7c-1.2,0.9-2.8,1.3-4.7,1.3c-2.9,0-5.1-1-6.5-2.9
		c-1.1-1.5-1.7-3.5-1.7-5.8c0-2.8,0.7-5,2.2-6.6s3.3-2.4,5.6-2.4c2.5,0,4.5,0.8,6,2.5s2.2,4.2,2.1,7.7h-11.2c0,1.3,0.4,2.4,1.1,3.1
		s1.6,1.1,2.6,1.1c0.7,0,1.3-0.2,1.8-0.6S362.4,342.9,362.6,342.1z M362.9,337.6c0-1.3-0.4-2.3-1-3c-0.6-0.7-1.4-1-2.3-1
		c-1,0-1.8,0.4-2.4,1.1s-0.9,1.7-0.9,2.9H362.9z"/>
	<path class="st1" d="M375.7,347.5l-6.8-16.9h4.7l3.2,8.6l0.9,2.9c0.2-0.7,0.4-1.2,0.5-1.5c0.2-0.5,0.3-1,0.5-1.4l3.2-8.6h4.6
		l-6.7,16.9H375.7z"/>
	<path class="st1" d="M399,342.1l4.5,0.7c-0.6,1.6-1.5,2.9-2.7,3.7c-1.2,0.9-2.8,1.3-4.7,1.3c-2.9,0-5.1-1-6.5-2.9
		c-1.1-1.5-1.7-3.5-1.7-5.8c0-2.8,0.7-5,2.2-6.6c1.5-1.6,3.3-2.4,5.6-2.4c2.5,0,4.5,0.8,6,2.5s2.2,4.2,2.1,7.7h-11.2
		c0,1.3,0.4,2.4,1.1,3.1c0.7,0.7,1.6,1.1,2.6,1.1c0.7,0,1.3-0.2,1.8-0.6C398.4,343.6,398.7,342.9,399,342.1z M399.2,337.6
		c0-1.3-0.4-2.3-1-3c-0.6-0.7-1.4-1-2.3-1c-1,0-1.8,0.4-2.4,1.1s-0.9,1.7-0.9,2.9H399.2z"/>
	<path class="st1" d="M407.3,347.5v-23.4h4.5v23.4H407.3z"/>
	<path class="st1" d="M415.4,338.8c0-1.5,0.4-2.9,1.1-4.3c0.7-1.4,1.8-2.5,3.1-3.2c1.3-0.7,2.8-1.1,4.5-1.1c2.6,0,4.7,0.8,6.3,2.5
		s2.5,3.8,2.5,6.3c0,2.6-0.8,4.7-2.5,6.4c-1.7,1.7-3.7,2.5-6.2,2.5c-1.6,0-3-0.4-4.4-1.1c-1.4-0.7-2.5-1.7-3.2-3.1
		C415.8,342.4,415.4,340.7,415.4,338.8z M420,339c0,1.7,0.4,3,1.2,3.9s1.8,1.3,3,1.3s2.2-0.4,2.9-1.3c0.8-0.9,1.2-2.2,1.2-3.9
		c0-1.7-0.4-2.9-1.2-3.8c-0.8-0.9-1.8-1.3-2.9-1.3s-2.2,0.4-3,1.3S420,337.3,420,339z"/>
	<path class="st1" d="M436.3,330.5h4.2v2.5c0.5-0.8,1.3-1.5,2.2-2.1c0.9-0.5,2-0.8,3.1-0.8c2,0,3.6,0.8,5,2.3
		c1.4,1.5,2.1,3.7,2.1,6.4c0,2.8-0.7,5-2.1,6.6c-1.4,1.6-3.1,2.4-5,2.4c-0.9,0-1.8-0.2-2.5-0.6c-0.8-0.4-1.6-1-2.4-1.9v8.5h-4.5
		V330.5z M440.7,338.7c0,1.9,0.4,3.3,1.1,4.2s1.7,1.4,2.8,1.4c1,0,1.9-0.4,2.6-1.3s1-2.2,1-4.1c0-1.8-0.4-3.1-1.1-4
		c-0.7-0.9-1.6-1.3-2.6-1.3c-1.1,0-2,0.4-2.7,1.3C441.1,335.8,440.7,337.1,440.7,338.7z"/>
	<path class="st1" d="M456,330.5h4.1v2.3c1.5-1.8,3.2-2.7,5.3-2.7c1.1,0,2,0.2,2.8,0.7c0.8,0.4,1.5,1.1,2,2c0.7-0.9,1.5-1.6,2.4-2
		c0.9-0.4,1.8-0.7,2.8-0.7c1.2,0,2.3,0.3,3.2,0.8c0.9,0.5,1.5,1.2,1.9,2.2c0.3,0.7,0.5,1.9,0.5,3.5v10.8h-4.5v-9.7
		c0-1.7-0.2-2.8-0.5-3.3c-0.4-0.6-1.1-1-1.9-1c-0.6,0-1.2,0.2-1.8,0.6c-0.6,0.4-0.9,0.9-1.2,1.7c-0.2,0.7-0.4,1.9-0.4,3.5v8.1h-4.5
		v-9.3c0-1.6-0.1-2.7-0.2-3.2c-0.2-0.5-0.4-0.8-0.7-1.1c-0.3-0.2-0.8-0.4-1.4-0.4c-0.7,0-1.3,0.2-1.9,0.6c-0.6,0.4-0.9,0.9-1.2,1.6
		c-0.2,0.7-0.4,1.9-0.4,3.5v8.2H456V330.5z"/>
	<path class="st1" d="M495.2,342.1l4.5,0.7c-0.6,1.6-1.5,2.9-2.7,3.7c-1.2,0.9-2.8,1.3-4.7,1.3c-2.9,0-5.1-1-6.5-2.9
		c-1.1-1.5-1.7-3.5-1.7-5.8c0-2.8,0.7-5,2.2-6.6c1.5-1.6,3.3-2.4,5.6-2.4c2.5,0,4.5,0.8,6,2.5s2.2,4.2,2.1,7.7h-11.2
		c0,1.3,0.4,2.4,1.1,3.1s1.6,1.1,2.6,1.1c0.7,0,1.3-0.2,1.8-0.6S495,342.9,495.2,342.1z M495.5,337.6c0-1.3-0.4-2.3-1-3
		c-0.6-0.7-1.4-1-2.3-1c-1,0-1.8,0.4-2.4,1.1s-0.9,1.7-0.9,2.9H495.5z"/>
	<path class="st1" d="M519,347.5h-4.5v-8.6c0-1.8-0.1-3-0.3-3.6c-0.2-0.5-0.5-1-0.9-1.3s-0.9-0.4-1.6-0.4c-0.8,0-1.5,0.2-2.1,0.6
		c-0.6,0.4-1,1-1.3,1.7c-0.2,0.7-0.3,2-0.3,3.9v7.7h-4.5v-16.9h4.2v2.5c1.5-1.9,3.3-2.9,5.6-2.9c1,0,1.9,0.2,2.7,0.5
		s1.4,0.8,1.9,1.4s0.7,1.2,0.9,1.9c0.2,0.7,0.2,1.7,0.2,3V347.5z"/>
	<path class="st1" d="M531.3,330.5v3.6h-3.1v6.8c0,1.4,0,2.2,0.1,2.4c0.1,0.2,0.2,0.4,0.4,0.6c0.2,0.1,0.5,0.2,0.8,0.2
		c0.4,0,1-0.1,1.8-0.4l0.4,3.5c-1,0.4-2.2,0.7-3.5,0.7c-0.8,0-1.5-0.1-2.2-0.4c-0.6-0.3-1.1-0.6-1.4-1.1c-0.3-0.4-0.5-1-0.6-1.7
		c-0.1-0.5-0.1-1.6-0.1-3.2v-7.4h-2.1v-3.6h2.1v-3.4l4.5-2.6v6H531.3z"/>
	<path class="st1" d="M543.6,324.1h9.4c1.9,0,3.2,0.1,4.1,0.2s1.7,0.5,2.4,1c0.7,0.5,1.3,1.1,1.8,2c0.5,0.8,0.7,1.7,0.7,2.7
		c0,1.1-0.3,2.1-0.9,3c-0.6,0.9-1.4,1.6-2.4,2.1c1.4,0.4,2.5,1.1,3.3,2.1c0.8,1,1.1,2.2,1.1,3.5c0,1.1-0.2,2.1-0.7,3.1
		c-0.5,1-1.2,1.8-2,2.4c-0.9,0.6-1.9,1-3.2,1.1c-0.8,0.1-2.7,0.1-5.7,0.2h-8V324.1z M548.3,328v5.4h3.1c1.8,0,3,0,3.4-0.1
		c0.8-0.1,1.4-0.4,1.9-0.8c0.5-0.5,0.7-1.1,0.7-1.8c0-0.7-0.2-1.3-0.6-1.8c-0.4-0.5-1-0.7-1.8-0.8c-0.5-0.1-1.8-0.1-4-0.1H548.3z
		 M548.3,337.3v6.3h4.4c1.7,0,2.8,0,3.2-0.1c0.7-0.1,1.3-0.4,1.7-0.9c0.4-0.5,0.7-1.2,0.7-2c0-0.7-0.2-1.3-0.5-1.8
		c-0.3-0.5-0.8-0.8-1.5-1.1c-0.6-0.2-2-0.3-4.2-0.3H548.3z"/>
	<path class="st1" d="M570.5,335.7l-4.1-0.7c0.5-1.6,1.2-2.9,2.4-3.6c1.1-0.8,2.8-1.2,5-1.2c2,0,3.5,0.2,4.5,0.7
		c1,0.5,1.7,1.1,2.1,1.8c0.4,0.7,0.6,2.1,0.6,4l0,5.2c0,1.5,0.1,2.6,0.2,3.3s0.4,1.5,0.8,2.3h-4.4c-0.1-0.3-0.3-0.7-0.4-1.3
		c-0.1-0.3-0.1-0.4-0.2-0.5c-0.8,0.7-1.6,1.3-2.5,1.7c-0.9,0.4-1.8,0.6-2.8,0.6c-1.7,0-3.1-0.5-4.1-1.4c-1-0.9-1.5-2.1-1.5-3.6
		c0-1,0.2-1.8,0.7-2.6c0.5-0.7,1.1-1.3,1.9-1.7s2-0.7,3.6-1c2.1-0.4,3.6-0.8,4.4-1.1V336c0-0.9-0.2-1.5-0.6-1.8
		c-0.4-0.4-1.2-0.6-2.4-0.6c-0.8,0-1.4,0.2-1.9,0.5C571.1,334.4,570.7,334.9,570.5,335.7z M576.5,339.3c-0.6,0.2-1.5,0.4-2.7,0.7
		s-2.1,0.5-2.4,0.8c-0.6,0.4-0.9,0.9-0.9,1.6c0,0.6,0.2,1.2,0.7,1.6c0.5,0.5,1.1,0.7,1.8,0.7c0.8,0,1.6-0.3,2.3-0.8
		c0.5-0.4,0.9-0.9,1.1-1.5c0.1-0.4,0.2-1.1,0.2-2.2V339.3z"/>
	<path class="st1" d="M600.7,347.5h-4.5v-8.6c0-1.8-0.1-3-0.3-3.6c-0.2-0.5-0.5-1-0.9-1.3s-0.9-0.4-1.6-0.4c-0.8,0-1.5,0.2-2.1,0.6
		c-0.6,0.4-1,1-1.3,1.7c-0.2,0.7-0.3,2-0.3,3.9v7.7h-4.5v-16.9h4.2v2.5c1.5-1.9,3.3-2.9,5.6-2.9c1,0,1.9,0.2,2.7,0.5
		s1.4,0.8,1.9,1.4s0.7,1.2,0.9,1.9c0.2,0.7,0.2,1.7,0.2,3V347.5z"/>
	<path class="st1" d="M605.1,347.5v-23.4h4.5v12.4l5.2-6h5.5l-5.8,6.2l6.2,10.8h-4.8l-4.3-7.6l-2.1,2.2v5.4H605.1z"/>
</g>
</svg>
